<svg xmlns="http://www.w3.org/2000/svg" width="24" height="24" viewBox="0 0 24 24">
  <g fill="none" stroke="#2C3E50" stroke-linecap="round" stroke-linejoin="round" stroke-width="1.5">
    <path d="M4.5 6.5h8a1 1 0 0 1 1 1v1.5a1 1 0 0 1-1 1h-8a1 1 0 0 1-1-1v-1.5a1 1 0 0 1 1-1z" />
    <path d="M4.5 11.5h8a1 1 0 0 1 1 1v1.5a1 1 0 0 1-1 1h-8a1 1 0 0 1-1-1v-1.5a1 1 0 0 1 1-1z" />
    <path d="M4.5 16.5h8a1 1 0 0 1 1 1v1.5a1 1 0 0 1-1 1h-8a1 1 0 0 1-1-1v-1.5a1 1 0 0 1 1-1z" />
    <path d="M16.5 6.5v8m-2.25-2.25L16.5 14l2.25-1.75" />
    <path d="M15 17.5h3" />
  </g>
</svg>
