<svg xmlns="http://www.w3.org/2000/svg" width="24" height="24" viewBox="0 0 24 24">
  <g fill="none" stroke="#2C3E50" stroke-width="1.5" stroke-linecap="round" stroke-linejoin="round">
    <path d="M3.5 6h8a1 1 0 0 1 1 1v1.5a1 1 0 0 1-1 1h-8a1 1 0 0 1-1-1V7a1 1 0 0 1 1-1z"/>
    <path d="M3.5 11h8a1 1 0 0 1 1 1v1.5a1 1 0 0 1-1 1h-8a1 1 0 0 1-1-1V12a1 1 0 0 1 1-1z"/>
    <path d="M3.5 16h8a1 1 0 0 1 1 1v1.5a1 1 0 0 1-1 1h-8a1 1 0 0 1-1-1V17a1 1 0 0 1 1-1z"/>
    <path d="M14.5 9h5l-.7 8.2a2 2 0 0 1-2 1.8h-2.3a2 2 0 0 1-2-1.8L12.5 9z"/>
    <path d="M15.5 9a2.5 2.5 0 0 1 5 0"/>
  </g>
  <path fill="#2C3E50" d="M17.2 18.4c.5.4.8 1 .8 1.6 0 .9-.7 1.7-1.5 1.7s-1.5-.8-1.5-1.7c0-.6.3-1.2.8-1.6l.7-.7z"/>
</svg>
