<svg xmlns="http://www.w3.org/2000/svg" width="24" height="24" viewBox="0 0 24 24">
  <g fill="none" stroke="#2C3E50" stroke-width="1.5" stroke-linecap="round" stroke-linejoin="round">
    <path d="M3.5 6h8a1 1 0 0 1 1 1v1.5a1 1 0 0 1-1 1h-8a1 1 0 0 1-1-1V7a1 1 0 0 1 1-1z"/>
    <path d="M3.5 11h8a1 1 0 0 1 1 1v1.5a1 1 0 0 1-1 1h-8a1 1 0 0 1-1-1V12a1 1 0 0 1 1-1z"/>
    <path d="M3.5 16h8a1 1 0 0 1 1 1v1.5a1 1 0 0 1-1 1h-8a1 1 0 0 1-1-1V17a1 1 0 0 1 1-1z"/>
    <path d="M14.5 8a4.5 4.5 0 1 1-2.2 8.4"/>
    <path d="M14.5 8V4.5h3.5"/>
    <path d="M18 4.5l1.5 1.5"/>
  </g>
</svg>
