<svg xmlns="http://www.w3.org/2000/svg" width="24" height="24" viewBox="0 0 24 24">
  <g fill="none" stroke="#2C3E50" stroke-linecap="round" stroke-linejoin="round" stroke-width="1.5">
    <path d="M4.5 6.5h10a1 1 0 0 1 1 1v1.75a1 1 0 0 1-1 1h-10a1 1 0 0 1-1-1V7.5a1 1 0 0 1 1-1z" />
    <path d="M4.5 11.5h10a1 1 0 0 1 1 1v1.75a1 1 0 0 1-1 1h-10a1 1 0 0 1-1-1V12.5a1 1 0 0 1 1-1z" />
    <path d="M4.5 16.5h10a1 1 0 0 1 1 1v1.75a1 1 0 0 1-1 1h-10a1 1 0 0 1-1-1V17.5a1 1 0 0 1 1-1z" />
    <path d="M17.5 10v3m-1.5-1.5h3" />
  </g>
</svg>
